Coordinates
version=1
nRows=21
nColumns=12
inDegrees=yes

Units are S.I. units (second, meters, Newtons, ...)
Angles are in degrees

endheader
time	SC_y	SC_z	SC_x	AC_y	AC_z	AC_x	GH_y	GH_z	GH_yy	EL_x	PS_y
       0.0              -54.31          2.459          7.774          69.01         -4.227          12.31          -79.5          39.58          65.06          27.93          151.0
   0.02353              -54.31          2.458           7.78           69.0         -4.229          12.31         -79.51          39.58          65.02          27.93          151.0
   0.04706              -54.31          2.456          7.787           69.0          -4.23          12.31         -79.52          39.58          64.99          27.93          151.0
   0.07058               -54.3          2.455          7.794           69.0         -4.232           12.3         -79.53          39.58          64.96          27.93          151.0
   0.09411               -54.3          2.454          7.801          68.99         -4.234           12.3         -79.54          39.59          64.92          27.93          151.0
    0.1176               -54.3          2.453           7.81          68.99         -4.236           12.3         -79.55          39.59          64.88          27.93          150.9
    0.1412              -54.29          2.451          7.818          68.99         -4.238          12.29         -79.57          39.59          64.83          27.93          150.9
    0.1647              -54.29           2.45          7.827          68.98         -4.241          12.29         -79.58           39.6          64.79          27.93          150.9
    0.1882              -54.28          2.448          7.837          68.98         -4.243          12.28         -79.59           39.6          64.74          27.93          150.9
    0.2118              -54.28          2.446          7.848          68.97         -4.246          12.28         -79.61          39.61          64.69          27.94          150.9
    0.2353              -54.27          2.444          7.859          68.97         -4.249          12.28         -79.62          39.61          64.63          27.94          150.8
    0.2588              -54.27          2.442          7.871          68.96         -4.252          12.27         -79.64          39.62          64.57          27.94          150.8
    0.2823              -54.26           2.44          7.884          68.96         -4.255          12.26         -79.66          39.62           64.5          27.94          150.8
    0.3059              -54.26          2.438          7.899          68.95         -4.259          12.26         -79.68          39.63          64.43          27.94          150.7
    0.3294              -54.25          2.435          7.914          68.94         -4.263          12.25          -79.7          39.63          64.36          27.95          150.7
    0.3529              -54.24          2.432          7.931          68.93         -4.267          12.24         -79.73          39.64          64.27          27.95          150.7
    0.3765              -54.23          2.429          7.949          68.93         -4.272          12.24         -79.75          39.65          64.18          27.95          150.6
       0.4              -54.23          2.426          7.969          68.92         -4.277          12.23         -79.78          39.66          64.08          27.95          150.6
    0.4235              -54.22          2.422           7.99          68.91         -4.283          12.22         -79.81          39.66          63.98          27.96          150.5
     0.447              -54.21          2.418          8.014           68.9         -4.289          12.21         -79.84          39.67          63.86          27.96          150.5
    0.4706              -54.19          2.414           8.04          68.88         -4.295           12.2         -79.88          39.69          63.73          27.96          150.4
